<?xml version="1.0" standalone="no"?>
<svg xmlns="http://www.w3.org/2000/svg" viewBox="0 0 23 34" width="23" height="34"><path fill="#000000" fill-rule="nonzero" d="M5.38 12.91L5.38 12.91Q3.72 12.91 2.57 12.36L2.57 12.36L2.57 13.18Q2.57 13.92 3.31 14.06L3.31 14.06L7.82 14.90Q8.95 15.12 9.86 15.47Q10.78 15.82 11.33 16.45Q11.88 17.09 11.88 18.19L11.88 18.19Q11.88 19.37 11.11 20.36Q10.34 21.36 8.84 21.97Q7.34 22.58 5.11 22.58L5.11 22.58Q3.19 22.58 2.06 22.19Q0.94 21.79 0.47 21.17Q0 20.54 0 19.85L0 19.85Q0 18.98 0.59 18.11Q1.18 17.23 2.04 16.70L2.04 16.70Q1.30 16.42 0.96 15.96Q0.62 15.50 0.62 14.98L0.62 14.98Q0.62 14.50 0.88 14.08Q1.13 13.66 1.49 13.22L1.49 13.22L2.28 12.22Q0.53 11.21 0.53 9.05L0.53 9.05Q0.53 7.32 1.76 6.24Q3 5.16 5.40 5.16L5.40 5.16Q6.62 5.16 7.55 5.45Q8.47 5.74 9.07 6.26L9.07 6.26Q9.84 6.14 10.52 5.87Q11.21 5.59 11.76 5.11L11.76 5.11L12.10 5.35L12.10 6.58L9.38 6.58Q10.25 7.54 10.25 9.05L10.25 9.05Q10.25 10.73 9.01 11.82Q7.78 12.91 5.38 12.91ZM5.35 12.43L5.35 12.43Q6.31 12.43 6.76 11.64Q7.20 10.85 7.20 9L7.20 9Q7.20 7.15 6.76 6.40Q6.31 5.64 5.40 5.64L5.40 5.64Q4.51 5.64 4.06 6.42Q3.60 7.20 3.60 9.05L3.60 9.05Q3.60 10.90 4.02 11.66Q4.44 12.43 5.35 12.43ZM1.78 19.08L1.78 19.08Q1.78 20.50 2.65 21.22Q3.53 21.94 5.42 21.94L5.42 21.94Q7.42 21.94 8.42 21.29Q9.43 20.64 9.43 19.46L9.43 19.46Q9.43 18.79 8.94 18.38Q8.45 17.98 7.27 17.76L7.27 17.76L2.93 16.94Q2.74 16.90 2.54 16.85L2.54 16.85Q2.21 17.33 1.99 17.94Q1.78 18.55 1.78 19.08ZM19.22 17.06L12.94 17.06L12.94 16.82L13.25 16.75Q13.70 16.63 13.97 16.33Q14.23 16.03 14.23 15.55L14.23 15.55Q14.23 14.66 14.24 13.79Q14.26 12.91 14.26 12.02L14.26 12.02L14.26 6L12.91 6L12.91 5.74L13.44 5.64Q13.92 5.59 14.14 5.30Q14.35 5.02 14.45 4.51L14.45 4.51Q14.69 3.58 15.16 2.87Q15.62 2.16 16.22 1.56L16.22 1.56Q17.14 0.70 18.16 0.35Q19.18 0 20.16 0L20.16 0Q21.12 0 21.91 0.40Q22.70 0.79 22.70 1.70L22.70 1.70Q22.70 2.35 22.32 2.72Q21.94 3.10 21.24 3.10L21.24 3.10Q20.66 3.10 20.18 2.78Q19.70 2.47 19.25 1.68L19.25 1.68L18.91 1.27Q18.65 0.94 18.38 0.95Q18.12 0.96 18 1.34L18 1.34Q17.83 2.18 17.75 3.31Q17.66 4.44 17.66 5.52L17.66 5.52L20.35 5.52L20.35 6L17.66 6L17.66 15.50Q17.66 16.42 18.62 16.68L18.62 16.68L19.22 16.82L19.22 17.06Z"></path><line x1="6.8112" y1="32.584" x2="15.892800000000001" y2="32.584" stroke="#000000" stroke-linecap="round"></line></svg>